<svg xmlns="http://www.w3.org/2000/svg" xmlns:xlink="http://www.w3.org/1999/xlink" id="Layer_1" x="0px" y="0px" width="100%" viewBox="0 0 512 512" xml:space="preserve"><path fill="#FFFFFF" opacity="1.000000" stroke="none" d="M513.000000,324.000000  C513.000000,386.963837 513.000000,449.927704 513.000000,512.945801  C342.333344,512.945801 171.666672,512.945801 1.000000,512.945801  C1.000000,493.580292 1.000000,474.257996 1.345161,454.549866  C3.021968,456.172760 4.194456,458.311920 5.714324,460.166412  C10.813780,466.388672 18.012836,467.875183 25.433081,467.932068  C49.258549,468.114777 73.086449,468.041229 96.913010,467.955566  C100.486671,467.942749 104.051834,467.176697 107.631897,467.033691  C118.221619,466.610626 126.166893,455.738312 126.115860,445.417969  C125.862061,394.099792 125.806282,342.778534 126.121330,291.461029  C126.212555,276.601654 116.052933,268.144470 102.804077,268.053162  C76.645744,267.872925 50.484535,267.902832 24.326582,268.108521  C20.558109,268.138153 16.711813,269.343506 13.058768,270.501007  C6.884782,272.457275 4.132149,277.968567 1.000000,283.000000  C1.000000,189.037064 1.000000,95.074135 1.000000,1.055603  C171.562286,1.055603 342.124573,1.055603 513.000000,1.055603  C513.000000,104.354553 513.000000,207.709427 512.649597,311.446045  C509.900360,307.637756 506.301270,305.953827 501.473175,305.958374  C435.806732,306.020294 370.140228,305.998535 304.473724,306.009827  C303.040131,306.010071 301.606537,306.157135 300.303833,306.228516  C300.303833,319.672821 300.303833,332.745880 300.303833,345.767822  C300.922272,345.875977 301.238342,345.979584 301.554413,345.979645  C361.887482,345.991211 422.220612,346.022339 482.553558,345.931488  C486.077637,345.926178 489.691864,345.268280 493.106384,344.336121  C503.631897,341.462616 509.613922,333.956085 513.000000,324.000000 M334.500000,81.000000  C372.865173,81.000000 411.230377,81.000000 449.634460,81.000000  C449.634460,141.574219 449.634460,202.755783 449.634460,264.743164  C399.594788,264.743164 349.917664,264.743164 300.277893,264.743164  C300.277893,276.623566 300.277893,287.694733 300.277893,299.000000  C302.362305,299.000000 304.171021,299.000000 305.979706,299.000000  C353.804108,299.000000 401.628571,299.020569 449.452881,298.956390  C452.855804,298.951843 456.347107,298.702515 459.645081,297.922974  C475.154144,294.257111 484.745667,281.877380 484.833710,267.435760  C485.219635,204.116592 485.105438,140.793365 484.881226,77.472633  C484.849243,68.430435 480.530426,60.523445 473.834473,54.486897  C466.506042,47.880154 457.174286,46.068245 447.662720,46.055653  C372.176941,45.955715 296.690857,45.942795 221.205093,46.045425  C204.960052,46.067513 188.713348,46.580357 172.472488,47.045006  C166.474945,47.216602 161.387741,50.078163 156.809296,53.726444  C147.414764,61.212364 144.123840,71.498558 144.033829,83.014259  C143.902283,99.843422 143.994370,116.674393 144.010056,133.504562  C144.011383,134.939819 144.154526,136.374939 144.226196,137.706314  C155.655762,137.706314 166.727341,137.706314 178.191055,137.706314  C178.191055,118.676025 178.191055,99.936501 178.191055,81.000000  C230.226364,81.000000 281.863190,81.000000 334.500000,81.000000 M97.478928,248.000000  C104.896004,248.681198 112.313087,249.362396 120.165329,250.083572  C120.165329,233.247391 120.165329,215.683289 120.165329,198.322083  C160.393250,198.322083 200.122543,198.322083 239.693024,198.322083  C239.693024,253.369919 239.693024,308.095276 239.693024,363.209961  C208.321381,363.209961 177.255203,363.209961 146.299561,363.209961  C146.299561,379.671478 146.299561,395.740265 146.299561,412.000000  C178.402206,412.000000 210.205688,411.983063 242.009155,412.006927  C258.793060,412.019501 275.029114,395.797089 275.016968,378.863831  C274.973602,318.384705 274.976624,257.905548 275.013855,197.426407  C275.025421,178.637146 259.039551,163.105270 240.691544,163.042206  C200.872421,162.905334 161.049774,163.274582 121.234077,162.880798  C102.155502,162.692108 84.253609,178.415329 84.908279,199.003479  C85.379318,213.816727 84.993820,228.657013 85.009850,243.485214  C85.011398,244.921921 85.150490,246.358444 85.236473,248.000000  C89.208389,248.000000 92.851128,248.000000 97.478928,248.000000 z"></path><path fill="#020202" opacity="1.000000" stroke="none" d="M1.000000,283.468658  C4.132149,277.968567 6.884782,272.457275 13.058768,270.501007  C16.711813,269.343506 20.558109,268.138153 24.326582,268.108521  C50.484535,267.902832 76.645744,267.872925 102.804077,268.053162  C116.052933,268.144470 126.212555,276.601654 126.121330,291.461029  C125.806282,342.778534 125.862061,394.099792 126.115860,445.417969  C126.166893,455.738312 118.221619,466.610626 107.631897,467.033691  C104.051834,467.176697 100.486671,467.942749 96.913010,467.955566  C73.086449,468.041229 49.258549,468.114777 25.433081,467.932068  C18.012836,467.875183 10.813780,466.388672 5.714324,460.166412  C4.194456,458.311920 3.021968,456.172760 1.345161,454.082001  C1.000000,397.312439 1.000000,340.624878 1.000000,283.468658 M83.498383,428.000000  C88.929871,428.000000 94.361351,428.000000 99.713158,428.000000  C99.713158,383.355194 99.713158,339.287537 99.713158,295.288330  C75.355362,295.288330 51.285500,295.288330 27.286888,295.288330  C27.286888,339.644897 27.286888,383.712585 27.286888,428.000000  C45.881523,428.000000 64.190140,428.000000 83.498383,428.000000 M59.035156,454.565002  C62.019520,454.550903 65.501740,455.473846 67.834946,454.234192  C69.796364,453.192108 71.466476,449.603821 71.401070,447.193329  C71.291473,443.154205 68.786942,439.882446 64.169052,439.717926  C60.571941,439.589813 57.575459,440.813660 55.852886,444.485931  C53.947853,448.547150 55.496922,451.412750 59.035156,454.565002 z"></path><path fill="#020202" opacity="1.000000" stroke="none" d="M513.000000,323.539368  C509.613922,333.956085 503.631897,341.462616 493.106384,344.336121  C489.691864,345.268280 486.077637,345.926178 482.553558,345.931488  C422.220612,346.022339 361.887482,345.991211 301.554413,345.979645  C301.238342,345.979584 300.922272,345.875977 300.303833,345.767822  C300.303833,332.745880 300.303833,319.672821 300.303833,306.228516  C301.606537,306.157135 303.040131,306.010071 304.473724,306.009827  C370.140228,305.998535 435.806732,306.020294 501.473175,305.958374  C506.301270,305.953827 509.900360,307.637756 512.649597,311.913879  C513.000000,315.692902 513.000000,319.385834 513.000000,323.539368 z"></path><path fill="#020202" opacity="1.000000" stroke="none" d="M334.000000,81.000000  C281.863190,81.000000 230.226364,81.000000 178.191055,81.000000  C178.191055,99.936501 178.191055,118.676025 178.191055,137.706314  C166.727341,137.706314 155.655762,137.706314 144.226196,137.706314  C144.154526,136.374939 144.011383,134.939819 144.010056,133.504562  C143.994370,116.674393 143.902283,99.843422 144.033829,83.014259  C144.123840,71.498558 147.414764,61.212364 156.809296,53.726444  C161.387741,50.078163 166.474945,47.216602 172.472488,47.045006  C188.713348,46.580357 204.960052,46.067513 221.205093,46.045425  C296.690857,45.942795 372.176941,45.955715 447.662720,46.055653  C457.174286,46.068245 466.506042,47.880154 473.834473,54.486897  C480.530426,60.523445 484.849243,68.430435 484.881226,77.472633  C485.105438,140.793365 485.219635,204.116592 484.833710,267.435760  C484.745667,281.877380 475.154144,294.257111 459.645081,297.922974  C456.347107,298.702515 452.855804,298.951843 449.452881,298.956390  C401.628571,299.020569 353.804108,299.000000 305.979706,299.000000  C304.171021,299.000000 302.362305,299.000000 300.277893,299.000000  C300.277893,287.694733 300.277893,276.623566 300.277893,264.743164  C349.917664,264.743164 399.594788,264.743164 449.634460,264.743164  C449.634460,202.755783 449.634460,141.574219 449.634460,81.000000  C411.230377,81.000000 372.865173,81.000000 334.000000,81.000000 z"></path><path fill="#020202" opacity="1.000000" stroke="none" d="M96.986397,248.000000  C92.851128,248.000000 89.208389,248.000000 85.236473,248.000000  C85.150490,246.358444 85.011398,244.921921 85.009850,243.485214  C84.993820,228.657013 85.379318,213.816727 84.908279,199.003479  C84.253609,178.415329 102.155502,162.692108 121.234077,162.880798  C161.049774,163.274582 200.872421,162.905334 240.691544,163.042206  C259.039551,163.105270 275.025421,178.637146 275.013855,197.426407  C274.976624,257.905548 274.973602,318.384705 275.016968,378.863831  C275.029114,395.797089 258.793060,412.019501 242.009155,412.006927  C210.205688,411.983063 178.402206,412.000000 146.299561,412.000000  C146.299561,395.740265 146.299561,379.671478 146.299561,363.209961  C177.255203,363.209961 208.321381,363.209961 239.693024,363.209961  C239.693024,308.095276 239.693024,253.369919 239.693024,198.322083  C200.122543,198.322083 160.393250,198.322083 120.165329,198.322083  C120.165329,215.683289 120.165329,233.247391 120.165329,250.083572  C112.313087,249.362396 104.896004,248.681198 96.986397,248.000000 M170.001831,382.606262  C169.998550,382.939453 170.043137,383.281250 169.984863,383.604523  C168.988464,389.130066 173.444122,395.348328 179.182037,395.928253  C184.547653,396.470490 189.786316,390.923370 190.037018,386.710052  C190.440979,379.920776 186.441544,375.253540 180.202301,374.934753  C174.871719,374.662384 172.511597,378.205322 170.001831,382.606262 z"></path><path fill="#FFFFFF" opacity="1.000000" stroke="none" d="M82.998566,428.000000  C64.190140,428.000000 45.881523,428.000000 27.286888,428.000000  C27.286888,383.712585 27.286888,339.644897 27.286888,295.288330  C51.285500,295.288330 75.355362,295.288330 99.713158,295.288330  C99.713158,339.287537 99.713158,383.355194 99.713158,428.000000  C94.361351,428.000000 88.929871,428.000000 82.998566,428.000000 z"></path><path fill="#FFFFFF" opacity="1.000000" stroke="none" d="M58.725174,454.303406  C55.496922,451.412750 53.947853,448.547150 55.852886,444.485931  C57.575459,440.813660 60.571941,439.589813 64.169052,439.717926  C68.786942,439.882446 71.291473,443.154205 71.401070,447.193329  C71.466476,449.603821 69.796364,453.192108 67.834946,454.234192  C65.501740,455.473846 62.019520,454.550903 58.725174,454.303406 z"></path><path fill="#FFFFFF" opacity="1.000000" stroke="none" d="M170.013824,382.218353  C172.511597,378.205322 174.871719,374.662384 180.202301,374.934753  C186.441544,375.253540 190.440979,379.920776 190.037018,386.710052  C189.786316,390.923370 184.547653,396.470490 179.182037,395.928253  C173.444122,395.348328 168.988464,389.130066 169.984863,383.604523  C170.043137,383.281250 169.998550,382.939453 170.013824,382.218353 z"></path></svg>